<?xml version="1.0" encoding="UTF-8" standalone="no"?>
<!-- Created with Inkscape (http://www.inkscape.org/) -->

<svg
   xmlns:dc="http://purl.org/dc/elements/1.1/"
   xmlns:cc="http://creativecommons.org/ns#"
   xmlns:rdf="http://www.w3.org/1999/02/22-rdf-syntax-ns#"
   xmlns:svg="http://www.w3.org/2000/svg"
   xmlns="http://www.w3.org/2000/svg"
   xmlns:sodipodi="http://sodipodi.sourceforge.net/DTD/sodipodi-0.dtd"
   xmlns:inkscape="http://www.inkscape.org/namespaces/inkscape"
   width="93.543304"
   height="93.543304"
   id="svg4806"
   version="1.1"
   inkscape:version="0.48.2 r9819"
   sodipodi:docname="HEB_project_flow_icon_02_charts_and_calendar.svg">
  <defs
     id="defs3" />
  <sodipodi:namedview
     inkscape:document-units="mm"
     id="base"
     pagecolor="#ffffff"
     bordercolor="#666666"
     borderopacity="1.0"
     inkscape:pageopacity="0.0"
     inkscape:pageshadow="2"
     inkscape:zoom="1.979899"
     inkscape:cx="65.177509"
     inkscape:cy="-10.893685"
     inkscape:current-layer="layer1"
     showgrid="true"
     units="mm"
     fit-margin-top="0.5"
     fit-margin-left="0.5"
     fit-margin-right="0.5"
     fit-margin-bottom="0.5"
     inkscape:window-width="1280"
     inkscape:window-height="1002"
     inkscape:window-x="1272"
     inkscape:window-y="-8"
     inkscape:window-maximized="1">
    <inkscape:grid
       type="xygrid"
       id="grid4812"
       empspacing="5"
       visible="true"
       enabled="true"
       snapvisiblegridlinesonly="true" />
  </sodipodi:namedview>
  <metadata
     id="metadata4">
    <rdf:RDF>
      <cc:Work
         rdf:about="">
        <dc:format>image/svg+xml</dc:format>
        <dc:type
           rdf:resource="http://purl.org/dc/dcmitype/StillImage" />
        <dc:title></dc:title>
      </cc:Work>
    </rdf:RDF>
  </metadata>
  <g
     inkscape:label="Layer 1"
     inkscape:groupmode="layer"
     id="layer1"
     transform="translate(-268.22835,-230.59053)">
    <rect
       style="fill:#00648c;fill-opacity:1;stroke:none"
       id="rect4814"
       width="90"
       height="90"
       x="270"
       y="232.36218"
       rx="14.173228"
       ry="14.173228" />
    <g
       id="g3191-2-1"
       style="fill:#ffffff;stroke:none"
       transform="matrix(0.2795444,0,0,0.2795444,248.75495,109.24804)">
      <path
         inkscape:connector-curvature="0"
         id="path3087-01-8"
         d="m 270.66158,502.40349 -33.71346,9.4075 -8.70847,33.8993 25.00499,24.4918 33.71346,-9.4075 8.70847,-33.8993 -25.00499,-24.4918 z m -4.35424,16.94966 c 9.36103,2.40476 15.00019,11.94284 12.59541,21.30387 -2.40476,9.36103 -11.94284,15.00019 -21.30387,12.59541 -9.36103,-2.40476 -15.00019,-11.94284 -12.59541,-21.30387 2.40476,-9.36103 11.94284,-15.00019 21.30387,-12.59541 z"
         style="fill:#ffffff;fill-opacity:1;stroke:none" />
      <path
         inkscape:connector-curvature="0"
         id="path3089-6-9"
         d="m 279.20187,567.6083 -32.15126,8.63996 -5.21492,-5.21491 -14.14213,-14.14213 -5.39169,-5.39169 8.55157,-31.79771 c -12.42051,7.7167 -19.07484,22.74157 -15.64474,37.60924 -0.47383,8.26861 -2.199,12.72143 -6.71751,18.78252 l -39.35491,39.35492 c -6.06139,4.51873 -10.51307,6.24351 -18.78253,6.71751 -7.00283,-2.20053 -14.70261,-2.4825 -22.31805,-0.44194 -21.33864,5.71767 -34.001947,27.62849 -28.284274,48.96714 5.717674,21.33864 27.650594,34.02404 48.989244,28.30637 21.33863,-5.71767 34.00193,-27.67269 28.28427,-49.01134 -0.1356,-0.50606 -0.26623,-0.98433 -0.41985,-1.4805 0.47565,-8.4948 2.26395,-12.973 7.00478,-19.24656 l 38.692,-38.692 c 6.26794,-4.73657 10.74461,-6.54952 19.22447,-7.02688 5.38298,1.23708 11.12672,1.22097 16.83798,-0.30936 9.05158,-2.42536 16.32153,-8.20391 20.83755,-15.62264 z m -131.76493,58.93293 24.74874,24.74874 -9.03771,33.83064 -33.80854,9.05981 -24.74874,-24.79294 9.03771,-33.78644 33.80854,-9.05981 z"
         style="fill:#ffffff;fill-opacity:1;stroke:none" />
      <path
         id="path3087-0-4-8"
         d="m 250.3125,604.86218 -30.3125,17.5 0,35 30.3125,17.5 30.3125,-17.5 0,-35 -30.3125,-17.5 z m 0,17.5 c 9.66498,0 17.5,7.83502 17.5,17.5 0,9.66498 -7.83502,17.5 -17.5,17.5 -9.66498,0 -17.5,-7.83502 -17.5,-17.5 0,-9.66498 7.83502,-17.5 17.5,-17.5 z"
         style="fill:#ffffff;fill-opacity:1;stroke:none"
         inkscape:connector-curvature="0" />
      <path
         inkscape:connector-curvature="0"
         id="path3087-9-0-4"
         d="m 348.48659,555.55264 -32.7427,12.36985 -5.65773,34.53969 27.08498,22.16984 32.7427,-12.36985 5.65773,-34.53969 -27.08498,-22.16984 z m -2.82886,17.26985 c 9.53787,1.56234 16.00332,10.56084 14.44098,20.09871 -1.56234,9.53786 -10.56084,16.00331 -20.09871,14.44098 -9.53787,-1.56234 -16.00332,-10.56084 -14.44098,-20.09871 1.56234,-9.53787 10.56084,-16.00332 20.09871,-14.44098 z"
         style="fill:#ffffff;fill-opacity:1;stroke:none" />
    </g>
  </g>
</svg>
